<?xml version="1.0" encoding="UTF-8"?><svg id="Layer_1" xmlns="http://www.w3.org/2000/svg" viewBox="0 0 1982.4 2803.92"><defs><style>.cls-1{fill:#fff;}</style></defs><path class="cls-1" d="M1982.3,1.94c-4.47-.11-8.94-.32-13.41-.32-394.15-.01-788.3-.01-1182.45-.01-255.09,0-510.19,0-765.28,.01-7.02,0-14.05,.21-21.07,.32C.51,1.35-.87,0,1.06,0,58.3,.03,115.55,.02,172.8,.02H1978.47c.96,0,1.92,.05,2.88-.01,1.93-.13,.54,1.34,.96,1.93Z"/><path class="cls-1" d="M.1,2801.98c4.75,.69,9.51,1.13,14.31,.94,1.92-.08,3.84-.01,5.75-.01,648.66,0,1297.31,0,1945.97,0,3.84,0,7.68,.06,11.51-.08,1.56-.05,3.11-.55,4.66-.85-.42,.59,.97,2-.96,1.94-2.56-.08-5.12-.02-7.67-.02H.1c0-.64,0-1.28,0-1.92Z"/><g><path d="M1466.64,543.99c-5.31,1.63-8.23,2.6-11.19,3.42-25.15,6.97-45.57,20.88-61.25,41.74-1.16,1.55-2.22,3.19-3.51,4.63-3.46,3.84-5.56,8.29-6.81,13.29-2.57,10.28-7.4,19.56-13.32,28.24-4.58,6.72-9.54,13.18-14.41,19.7-3.24,4.35-6.67,8.56-9.9,12.92-7.4,10-17.54,14.92-29.68,16.11-2.69,.27-5.42,.2-8.13,.24-8.14,.11-16.24,.46-24.31,1.87-4.94,.87-10.02,.95-15.03,1.48-.59,.06-1.16,.67-1.67,1.11-.62,.52,.58,2.08,1.92,2.41,14.31,3.5,28.16,8.46,42.05,13.29,8.77,3.05,17.63,5.85,26.39,8.94,3.72,1.31,7.49,1.85,11.39,1.91,6.7,.11,12.04-2.69,16.1-7.83,1.9-2.41,3.49-5.13,4.86-7.89,5-10.06,9.71-20.25,12.79-31.12,5.53-19.54,18.13-32.94,36.22-41.55,9.5-4.52,19.57-7.35,29.82-9.44,25.82-5.27,51.58-4.45,77.3,.95,18.99,3.99,37.37,10.02,55.71,16.18,10.99,3.69,21.91,7.56,32.83,11.34-.23,1.07-.21,1.91-.59,2.48-.4,.59-1.15,1-1.82,1.34-1.72,.88-3.45,1.78-5.23,2.52-26.58,11.03-51.19,25.69-75.54,40.84-16.78,10.43-33.67,20.69-50.48,31.06-9.64,5.94-19.91,10.45-30.95,12.94-15.62,3.53-31.38,4.04-47.34,2.35-24.03-2.55-47.09-8.98-70-16.24-14.75-4.68-29.5-9.38-44.29-13.93-11.85-3.65-23.96-6.24-36.16-8.42-9.52-1.7-18.96-3.92-28.51-5.45-8.4-1.35-16.89-2.23-25.37-2.96-3.43-.3-6.98,.1-10.41,.64-8.5,1.32-17.03,.61-25.54,.63-2.23,0-4.45-1.17-6.71-1.64-1.88-.39-3.82-.78-5.71-.71-1.53,.06-2.88,.98-3.6,2.54-.71,1.54-.59,3.1,.28,4.41,.84,1.27,1.96,2.41,3.15,3.37,2.41,1.94,5.13,3.52,7.41,5.59,7.92,7.18,17.24,11.73,27.29,14.97,3.68,1.19,7.34,2.48,11.07,3.51,25.76,7.11,50.99,15.9,76.24,24.56,14.29,4.9,28.11,11.04,41.25,18.57,3.36,1.92,6.64,4,9.89,6.09,6.69,4.3,11.67,9.99,14.83,17.41,1.96,4.61,4.38,9.09,7.1,13.3,10.19,15.74,25.06,23.69,43.5,25.42,3.07,.29,6.15,.45,9.21,.85,.42,.05,.92,1.15,.97,1.79,.07,.71-.18,1.56-.55,2.19-2.28,3.89-5.61,6.37-10.12,7.02-2.3,.33-4.65,.78-6.93,.62-10.55-.75-20.86,1.3-31.18,2.69-12.72,1.72-25.46,2.06-38.24,2.14-1.93,.01-3.87-.25-5.8-.28-22.27-.33-43.81-4.78-65-11.31-3.7-1.14-7.42-2.22-11.04-3.59-12.59-4.76-23.22-12.28-31.6-22.89-4.58-5.8-8.65-11.94-11.87-18.58-4.4-9.05-8.55-18.23-12.75-27.38-2.1-4.58-4.06-9.22-6.1-13.82-6.74-15.18-15.9-28.39-30.74-36.82-.97-3.57-1.78-6.95-2.81-10.25-1.61-5.17-5.04-8.46-10.28-10.14-4.2-1.34-8.47-1.65-12.63-.85-9.22,1.79-18.52,1.4-27.8,1.77-8.51,.34-17.03,.78-25.53,1.36-15.07,1.04-30.15,2.04-45.2,3.4-10.4,.94-20.76,2.44-31.13,3.74-13.83,1.74-27.65,3.53-41.48,5.31-2.28,.29-4.63,.35-6.59,1.85-.76,.58-1.07,1.26-.39,1.98,1.32,1.37,2.66,2.77,4.19,3.9,15.39,11.33,32.24,19.94,49.96,26.98,14.05,5.58,28.59,9.65,43.05,13.97,10.38,3.1,20.79,6.14,31.07,9.57,12.5,4.17,24.64,9.24,36.18,15.68,12.99,7.25,24.64,16.17,34.1,27.67,3.61,4.39,7.9,7.3,13.17,9.06,4.04,1.35,8.04,2.8,11.49,5.45,2.24,1.71,3.92,3.79,4.54,6.53,.24,1.07,.04,2.29-.19,3.39-.31,1.43-2.18,2.83-3.39,2.72-3.46-.32-6.91-.79-10.38-.97-8.24-.42-16.17,1.55-24.07,3.47-6.01,1.46-11.92,3.37-17.88,5.02-10.45,2.89-20.93,5.43-31.84,6.21-38.08,2.73-68.93-10.87-92.68-40.64-9.29-11.64-15.4-25.04-20.44-38.93-1.04-2.88-1.43-6.02-1.89-9.08-.91-6.05-3.86-10.96-8.43-14.82-2.94-2.49-6.14-4.73-9.43-6.74-4.62-2.82-9.43-5.32-14.33-8.05-1.24-1.78-2.51-3.72-3.89-5.58-5.68-7.66-13.36-11.62-22.83-11.95-7.75-.27-15.42,.19-23.14,1.43-36.35,5.83-72.05,14.62-107.78,23.28-17.68,4.28-35.37,8.52-53.14,12.37-25.62,5.55-47.67,17.89-67.61,34.5-3.35,2.79-5.9,6.12-7.42,10.22-1.11,2.98-1.33,6.03-.75,9.15,.55,2.95,3.54,5.72,6.45,5.86,1.16,.06,2.37,.18,3.47-.08,5.39-1.26,10.78-.62,16.2-.28,13.15,.82,26.3,1.82,39.46,2.12,12.01,.27,23.97-.66,35.81-3.17,17.88-3.8,35.26-8.93,51.55-17.39,9.31-4.84,18.18-10.34,26.06-17.34,1.44-1.28,2.99-2.48,4.65-3.44,1.75-1.01,3.67-1.02,5.54-.01,2.2,1.19,3.75,2.9,3.54,5.49-.16,1.89-.5,3.89-1.31,5.56-1.7,3.47-3.62,6.86-5.7,10.11-9.62,15-19.26,30-29.05,44.89-4.69,7.13-10.25,13.62-16.15,19.8-9.65,10.1-20.14,19.31-30.56,28.59-8.41,7.49-18.37,11.33-29.46,12.41-3.47,.34-6.96,.66-10.44,.6-12.4-.22-24.83-.15-37.18-1.06-14.71-1.09-29.11-4.14-43.01-9.28-3.27-1.21-6.49-2.57-9.83-3.54-7.07-2.05-13.28,.88-16.3,7.51-.64,1.4-1.1,2.89-1.55,4.36-7.03,22.96-14.18,45.88-19.5,69.32-4.55,20.03-8.28,40.21-10.66,60.62-1.26,10.77-2.58,21.54-3.64,32.33-.68,6.94-.87,13.92-1.39,20.88-2.71,36.38-2.69,72.81-1.59,109.23,.41,13.54,1.59,27.08,2.9,40.57,1.95,20.05,4.3,40.06,6.55,60.08,3.07,27.34,7.01,54.56,12.06,81.6,6.69,35.78,13.62,71.52,20.59,107.25,1.41,7.22,3.3,14.34,5.89,21.26,1.76,4.72,3.27,9.54,5.26,14.16,12.27,28.46,22.86,57.59,34.34,86.37,16.38,41.05,34.86,81.13,55.05,120.44,3.19,6.2,6.36,12.41,9.37,18.7,6.71,14.02,14.76,27.24,23.61,39.99,5.53,7.97,11.01,15.96,16.46,23.98,15.28,22.49,32.6,43.35,50.54,63.72,21.01,23.85,42.11,47.61,63.13,71.44,7.98,9.04,16.94,17.02,26.17,24.74,3.86,3.23,7.74,6.46,11.79,9.45,19.97,14.74,38.73,30.98,57.95,46.65,36.35,29.62,72.68,59.28,109.37,88.47,28.22,22.45,57.87,42.93,89.11,61.05,14.08,8.17,28.34,16,43.18,22.69,16.65,7.5,32.41,16.54,47.8,26.32,7.19,4.57,14.45,9.03,21.73,13.47,4.3,2.63,8.81,4.81,13.63,6.41,4.11,1.36,8.22,2.02,12.54,2,7.92-.03,14.2-3.35,19.21-9.25,4.08-4.8,6.71-10.45,8.47-16.43,8.28-28.13,5.76-55.14-8.62-80.88-7.04-12.61-15.9-23.84-25.97-34.13-6.25-6.38-12.13-13.07-17.27-20.37-7.19-10.21-12.82-21.18-16.23-33.25-3.2-11.32-4.27-22.82-3.09-34.52,.91-8.99,3.49-17.47,8.15-25.23,2.79-4.65,5.88-9.11,8.81-13.68,3.76-5.87,7.63-11.67,11.22-17.64,3.82-6.37,6.25-13.32,7.59-20.62,1.9-10.33-.17-20.04-5.05-29.18-1.07-2-2.74-3.75-4.38-5.37-2.55-2.52-5.68-3.94-9.31-4.27-5.11-.46-10,.27-14.82,2.07-6.16,2.3-12.39,4.44-18.61,6.56-8.88,3.03-17.99,4.49-27.4,4.26-14.1-.34-26.46-5.22-37.35-14.03-4.25-3.44-7.88-7.44-10.77-12.1-4.49-7.24-5.99-14.96-4.19-23.38,.91-4.23,2.47-8.14,4.49-11.91,4.48-8.33,11.5-13.46,20.52-15.91,8.33-2.26,16.79-2.66,25.35-1.39,11.11,1.64,22.25,3.08,33.35,4.74,7.49,1.11,14.78-.17,21.73-2.51,11.52-3.88,19.78-11.93,25.56-22.5,3.58-6.54,3.66-13.43,.69-20.16-1.55-3.51-3.58-6.89-5.87-9.98-7.13-9.66-14.06-19.47-22.57-28.05-5.2-5.25-9.4-11.32-12.92-17.84-5.41-10.03-8.62-20.64-9.25-32.1-.79-14.54,1.49-28.57,5.96-42.33,1.33-4.1,2.99-7.97,6.46-10.81,.87-.71,1.45-1.79,2.12-2.73,.69-.97,.44-3.46-.44-4.36-.8-.82-1.57-1.74-2.53-2.35-5.43-3.45-11.39-4.7-17.75-4.03-6.2,.65-12.19,2.26-18,4.44-7.97,2.99-15.87,6.16-23.72,9.44-8.93,3.74-17.73,7.76-26.65,11.52-10.38,4.38-21.16,7.49-32.27,9.32-10.79,1.78-21.55,1.93-32.29-.79-6.55-1.66-12.24-4.68-17.23-9.17-6.42-5.78-11.54-12.54-15.23-20.34-4.31-9.1-8.51-18.24-13.01-27.25-6.15-12.3-6.85-25.32-2.43-38.43,4.41-13.06,11.73-24.46,21.03-34.49,6.2-6.69,14.21-10.56,23.09-12.7,9.93-2.39,19.96-2.58,30.03-1.48,16.98,1.84,33.66,5.18,49.94,10.44,8.1,2.62,16.28,4.98,24.4,7.52,1.9,.59,2.1,3.1,.55,4.72-1.11,1.16-2.38,2.1-3.99,2.09-3.09-.03-6.27,.18-9.24-.48-18.66-4.11-37.6-4.91-56.6-5.21-6.97-.11-13.95-.12-20.93,.03-4.25,.09-8.51,.48-12.74,.9-1.91,.19-3.85,.59-5.65,1.23-8.73,3.08-14.26,9.11-14.74,20.09-.08,1.93-.14,3.92,.24,5.79,1.58,7.66,1.35,15.42,1.5,23.16,.09,4.64,.11,9.28,1.26,13.86,4.01,15.98,13.41,27.87,27.78,35.53,18.62,9.93,37.74,10.51,56.93,1.36,2.79-1.33,5.46-2.93,8.2-4.38,11.3-6,22.9-11.32,34.89-15.82,8.1-3.04,16.39-4.48,25.04-3.99,6.27,.35,12.18,2.08,17.99,4.31,12.88,4.93,26.27,6.44,39.97,5.69,2.32-.13,4.63-.41,6.95-.62,3.16-.29,6.06-1.49,8.7-3.09,4.12-2.49,6.98-6.01,7.9-10.96,.57-3.08,.76-6.12,.57-9.24-.44-6.96-.6-13.94-1.12-20.9-.98-13.13-1.94-26.28-3.27-39.38-2.25-21.97-5.32-43.84-8.48-65.7-.67-4.6-1.47-9.18-2.17-13.77-2.95-19.58-3.44-39.35-4.69-59.07-.89-13.92-1.89-27.84-3.08-41.74-1.19-13.89-2.6-27.77-4.06-41.64-1.09-10.4-2.54-20.76-3.6-31.17-2.34-23.13-4.97-46.22-5.91-69.49-.72-17.82-1.57-35.61-1.37-53.45,.1-8.91-.17-17.82-.33-26.73-.22-12.04-2.26-23.91-3.67-35.83-1.64-13.85-3.85-27.63-5.3-41.5-1.33-12.72-1.42-25.54-1.08-38.33,.67-25.19,.48-50.37-.73-75.55-1.01-20.9-1.38-41.83-.46-62.77,.17-3.86-.03-7.74-.08-11.61-.02-1.55-.16-3.09-.14-4.64,.08-4.77,4.5-7.67,9.01-5.82,5.58,2.29,8.23,6.86,9,12.57,.3,2.27,.2,4.66-.11,6.95-.84,6.2-.61,12.36-.05,18.56,.97,10.82,1.02,21.67,.99,32.53-.07,26.36-.38,52.72,.15,79.07,.37,18.19,1.27,36.39,3.06,54.54,1.83,18.52,4.13,36.95,7.26,55.29,.78,4.55,.83,9.27,.77,13.9-.45,34.12,.35,68.22,2.53,102.26,1.17,18.15,2.96,36.29,5.81,54.3,1.51,9.56,2.5,19.21,3.35,28.85,2.43,27.4,4.57,54.83,7.04,82.23,.83,9.25,2.32,18.44,3.49,27.67,1.85,14.6,3.71,29.21,5.51,43.82,1.33,10.77,2.66,21.53,3.83,32.32,1.21,11.17,2.23,22.36,3.35,33.54,1.12,11.18,1.93,22.4,3.48,33.52,1.43,10.23,.42,20.09-2.55,29.85-1.35,4.44-2.81,8.86-4.48,13.19-4.53,11.72-13.6,17.42-25.69,18.88-2.68,.32-5.42,.31-8.13,.31-5.11,0-10.03,1.23-14.81,2.71-8.13,2.52-14.28,7.61-18.05,15.37-.68,1.39-1.43,2.77-1.89,4.24-5.02,15.82-6.64,31.83-2.19,48.07,2.18,7.96,5.96,15.2,11.49,21.32,12.25,13.55,22.39,28.72,33.39,43.22,2.35,3.09,4.57,6.27,5.83,10,2.15,6.38,2.63,12.75,.93,19.42-2.06,8.1-5.72,15.18-11.53,21.15-4.69,4.82-10.21,8.16-16.81,9.84-13.15,3.35-26.43,5.79-39.94,7.29-12.35,1.37-24.71,1.94-37.12,2.07-1.55,.02-3.11-.03-4.64,.17-7.15,.91-13.52,3.52-18.16,9.26-2.18,2.69-4.17,5.6-5.87,8.62-3.33,5.93-1.84,12.37,3.82,16.38,2.82,2,5.93,3.66,9.05,5.19,9.01,4.41,18.29,5.65,28.19,2.93,9.32-2.56,18.81-4.53,28.25-6.62,9.94-2.2,20.05-2.35,30.07-1.09,12.34,1.56,22.92,7.01,31.04,16.6,9.15,10.8,12.27,23.16,8.4,36.9-3.9,13.88-9.24,27.12-18.02,38.76-6.85,9.08-11.65,19.14-14.12,30.31-1.87,8.47-1.93,16.96-.36,25.39,1.5,8.01,3.94,15.78,7.74,23.06,6.26,12.02,12.26,24.19,18.82,36.05,4.11,7.44,9.01,14.45,13.58,21.64,3.74,5.88,7.8,11.58,11.19,17.65,8.34,14.92,12.13,31,10.57,48.09-1.44,15.82-2.71,31.67-5.31,47.35-1.14,6.86-3.2,13.56-4.85,20.33-.36,1.5-.92,2.97-1.1,4.49-.34,2.94,.83,5.42,3.25,7,1.92,1.26,4.11,2.13,6.23,3.05,8.87,3.88,17.81,7.59,26.62,11.61,5.28,2.4,10.45,5.07,15.5,7.93,8.53,4.83,15.55,11.5,21.88,18.91,2.02,2.36,3.73,4.95,4.47,8.04,.09,.37,.2,.98,.03,1.11-.59,.43-1.32,.99-1.96,.95-1.12-.06-2.29-.38-3.31-.85-10.19-4.71-20.38-9.42-30.51-14.24-8.04-3.83-15.99-7.85-24.01-11.71-3.14-1.51-6.35-2.89-9.57-4.21-15.86-6.53-31.7-6.35-47.41,.49-4.25,1.85-8.45,3.88-12.5,6.15-11.28,6.32-23.39,10.22-36.05,12.45-4.17,.73-8.48,.9-12.73,.98-14.34,.27-28.67,.09-42.93-1.87-7.66-1.05-15.43-1.27-23-3.1-8.29-2.01-16.53-4.1-24.02-8.36-.52-.3-.79-1.22-.95-1.91-.2-.88,.36-1.4,1.36-1.42,1.93-.03,3.86-.12,5.79-.06,8.91,.31,17.81,.79,26.72,.96,16.27,.32,32.54,.53,48.82,.67,9.76,.09,19.27-1.79,28.59-4.51,9.7-2.83,18.83-7.1,27.66-11.98,1.34-.74,2.54-1.75,3.76-2.69,1.86-1.44,1.78-4.86-.17-6.03-1.31-.79-2.66-1.56-4.08-2.13-15.86-6.38-30.81-14.52-45.38-23.41-5.62-3.43-11.21-6.91-16.84-10.33-12.91-7.85-26.08-15.21-39.78-21.64-33.79-15.86-65.18-35.73-95.4-57.52-20.44-14.74-40.23-30.32-59.8-46.18-14.76-11.96-29.78-23.56-45.8-33.81-7.87-5.04-14.96-11.13-21.33-17.9-15.71-16.71-33.18-31.42-50.83-45.98-15.24-12.58-30.25-25.44-45.22-38.35-35.44-30.55-65.55-65.86-92.49-103.99-20.59-29.14-39.27-59.49-57.42-90.19-5.72-9.67-11.26-19.45-17-29.11-21.8-36.73-40.03-75.19-56.14-114.71-14.91-36.59-28.37-73.73-41.84-110.87-4.49-12.38-9.15-24.67-12.33-37.5-3.45-13.93-6.13-28.01-8.23-42.18-3.53-23.75-6.97-47.52-11.03-71.19-2.88-16.79-5.4-33.65-8.11-50.48-.86-5.35-1.61-10.74-2.77-16.03-3.69-16.76-4.55-33.76-4.56-50.85,0-3.88,.19-7.77-.09-11.62-.22-3.06-.79-6.14-1.63-9.09-.66-2.32-2.52-3.91-4.97-4.42-1.88-.39-3.82-.74-5.73-.74-18.65,.07-37.11-1.61-55.39-5.36-5.68-1.17-11.42-2.11-17.14-3.09-11.97-2.04-23.24-6.11-33.62-12.34-24.19-14.54-42.72-34.41-55.14-59.84-5.68-11.64-8.94-23.92-9.23-36.92-.13-5.81-.46-11.62-.44-17.43,.13-31.12,7.58-60.57,20.29-88.83,9.26-20.58,20.92-39.77,34.13-58,7.5-10.35,15.45-20.38,23.47-30.34,9.76-12.13,21.05-22.73,33.19-32.45,12.42-9.94,25.56-18.86,38.95-27.42,7.83-5.01,15.64-10.06,23.55-14.95,10.55-6.53,20.86-13.39,30.76-20.88,9.29-7.03,19.11-13.16,29.74-18.04,16.62-7.64,29.67-19.52,39.76-34.72,4.94-7.44,9.3-15.21,12.84-23.41,4.29-9.96,8.47-19.97,12.61-29.98,2.38-5.76,5-11.37,9.26-16.01,1.03-1.12,2.31-2.07,3.61-2.84,.36-.21,1.75,.38,1.82,.76,.87,5.03,.25,10-.81,14.94-1.95,9.14-5.16,17.86-9.02,26.34-3.05,6.7-6.33,13.29-9.41,19.97-1.62,3.51-3.06,7.1-4.52,10.69-.57,1.41,.93,2.93,2.63,2.76,1.15-.11,2.36-.06,3.44-.42,2.2-.74,4.52-1.39,6.44-2.63,13.56-8.72,28.9-12.99,44.02-17.75,25.52-8.02,51.66-13.5,77.9-18.54,25.84-4.96,51.65-10.14,77.5-15.09,22.05-4.22,44.07-8.67,66.22-12.25,16.42-2.65,32.97-4.66,49.63-5.58,9.28-.51,18.53-1.52,27.78-2.34,1.54-.14,3.08-.38,4.59-.71,4.23-.93,6.81-3.68,7.32-7.94,.28-2.3,.36-4.63,.43-6.95,.2-7.36,.19-14.73,.55-22.08,.73-14.72,2.2-29.34,6.21-43.62,8.74-31.16,27.48-54.29,55.95-69.44,7.84-4.17,16.1-7.59,24.33-10.97,9.31-3.82,18.85-7.07,28.19-10.82,10.51-4.22,21.6-6.11,32.61-8.16,10.31-1.93,20.44-4.31,30.25-8.04,1.78-.68,3.7-1.06,5.58-1.34,2.16-.33,4.66,1.68,5.19,3.79,.79,3.12,.46,6.18-.43,9.17-3.78,12.61-7.54,25.22-11.48,37.78-1.39,4.43-3.07,8.79-4.96,13.03-3.67,8.22-8.67,15.6-15.41,21.62-6.94,6.19-14.25,11.94-22.03,17.08-11.56,7.65-24.14,12.32-38.01,12.98-9.79,.46-19.12,2.91-28.32,5.92-7.72,2.52-15.24,5.69-23,8.09-6.54,2.02-10.59,6.26-12.79,12.42-2.87,8.01-5.52,16.11-8.2,24.19-.73,2.2-1.15,4.5-1.83,6.71-1.15,3.75-2.99,7.1-5.7,10-1.18,1.26-3.88,2.23-2.5,4.48,1.08,1.75,3.49,.95,5.34,.96,15.89,.06,31.77,.07,47.66,.1,11.68,.02,23.15-1.45,34.53-4.08,9.97-2.3,20.04-2.12,29.97,.2,9.46,2.21,18.97,3.7,28.7,4.01,10.84,.35,21.68,1.02,32.5,1.75,5.01,.33,10.02,.95,14.97,1.76,3.66,.59,8.19-.69,10.51-5.49,1.34-2.77,2.3-5.75,3.11-8.72,2.35-8.59,4.53-17.23,6.78-25.85,2.64-10.12,5.55-20.16,9.2-29.98,3.79-10.2,8.41-19.99,14.26-29.18,15.42-24.23,36.91-40.47,64.49-48.43,10.05-2.9,20.33-4.67,30.83-5.43,13.98-1.01,27.9-.54,41.79,.64,10.8,.92,21.47,3.01,32.07,5.32,4.16,.9,8.29,1.91,12.42,2.93,1.48,.36,2.92,.89,6.57,2.01Zm-929.07,331.06c0,.07,0,.15,0,.22-7.75,.07-15.49,.25-23.24,.2-12.25-.08-22.79,4.14-31.44,12.69-6.33,6.26-12.44,12.76-18.34,19.43-5.65,6.38-10.75,13.23-16.36,19.64-13.91,15.88-24.63,33.75-33.47,52.82-5.54,11.94-10.95,23.94-16.34,35.95-7.55,16.81-11.25,34.55-12.56,52.84-.28,3.85-.28,7.76,.04,11.61,1.32,16.26,4.46,32.21,9.03,47.86,2.3,7.89,6.24,14.93,11.74,21.16,25.7,29.09,57.78,46.3,96.23,51.14,11.88,1.5,23.95,1.47,35.94,2.07,1.13,.06,2.3-.25,3.43-.49,2.39-.52,4.94-3.52,4.93-5.87,0-1.54-.17-3.08-.4-4.6-1.09-7.33-.89-14.69-.31-22.03,.54-6.95,1.13-13.91,2.21-20.79,1.88-11.95,1.94-23.91,1.21-35.93-1.02-16.67,.03-33.32,1.16-49.93,.74-10.8,2.44-21.54,3.89-32.29,2.65-19.58,6.23-38.98,10.93-58.19,5.16-21.08,11.73-41.74,18.06-62.47,1.81-5.92,3.91-11.77,5.47-17.75,2.82-10.82-.08-15.15-11.28-16.68-10.35-1.42-20.74-2.83-31.24-1.28-3.06,.45-6.18,.46-9.27,.67Zm1038.32-228.83c-.95-.57-1.89-1.28-2.94-1.75-19.49-8.69-39.42-15.8-60.74-18.76-9.3-1.29-18.56-1.8-27.76-.82-12.3,1.3-24.53,3.48-36.47,6.82-10.44,2.92-20.67,6.49-29.98,12.24-12.9,7.96-22.81,18.57-28.34,32.8-3.78,9.73-7.1,19.64-10.41,29.55-1.36,4.06-1.68,8.33-.75,12.62,.56,2.61,2.97,4.82,5.62,5.1,4.28,.45,8.58,.37,12.69-.76,5.48-1.5,10.69-.81,16,.65,4.09,1.12,8.24,2.17,12.43,2.73,12.95,1.73,25.46-.08,37.45-5.32,11.73-5.13,22.94-11.23,33.58-18.34,9.65-6.45,19.2-13.07,28.63-19.84,15.41-11.06,30.81-22.13,47.17-31.79,1.31-.77,2.53-1.77,3.58-2.87,.4-.42,.17-1.42,.24-2.25Zm-154.93-100.94c-2.26-.67-4.42-1.69-6.66-1.9-8.88-.85-17.77-.8-26.63,.42-3.83,.53-7.67,.96-11.5,1.44-11.14,1.39-22.17,3.29-32.85,6.88-21.83,7.34-38.63,20.74-49.84,41.01-4.31,7.8-8.38,15.71-11.66,23.99-5.27,13.3-10.37,26.66-15.52,40.01-.56,1.44-1.12,2.91-1.41,4.42-.29,1.5-.43,3.08-.32,4.6,.31,4.12,3.02,7.16,7.48,7.29,4.34,.12,8.41-.88,12.42-2.46,7.25-2.87,14.74-4.65,22.61-4.45,.77,.02,1.54-.15,2.31-.21,18.78-1.57,32.83-10.54,42.04-26.97,2.27-4.04,4.21-8.27,6.23-12.45,6.42-13.23,12.91-26.42,20.45-39.05,2.97-4.98,6.03-9.92,9.4-14.64,6.63-9.27,15.01-16.62,25.14-21.93,2.39-1.26,4.82-2.45,7.15-3.82,.51-.3,.67-1.2,1.16-2.17Zm-102.39,290.33c5.03,0,10.06,.01,15.09,0,2.77,0,5.33-.8,7.76-2.1,1.5-.8,2.59-3.62,1.78-5.02-.76-1.33-1.61-2.62-2.51-3.86-3.86-5.32-7.79-10.59-11.62-15.93-2.93-4.09-5.63-8.34-8.62-12.39-6.05-8.19-13.44-14.81-22.45-19.77-32.43-17.86-66.8-30.33-103.03-37.76-3.02-.62-6.13-.8-9.21-1.13-1.56-.17-3.37,.82-3.87,1.94-.7,1.56-.34,3.06,.44,4.42,.77,1.33,1.62,2.67,2.68,3.76,3.43,3.51,5.02,7.51,4.88,12.52-.23,7.99,2.76,15.13,6.86,21.83,3.67,6,8.32,11.17,13.63,15.74,13.32,11.45,28.11,20.44,44.58,26.65,20.5,7.74,41.74,11.23,63.6,11.11Zm-622.91-10.63c0-.19,0-.39,0-.58-12.75,0-25.51-.01-38.26,0-5.82,0-11.56,.56-17.19,2.16-4.95,1.4-9.24,3.8-12.92,7.4-6.03,5.91-9.25,13.25-10.86,21.35-.27,1.34,.42,3.1,1.19,4.35,.99,1.61,2.38,3.04,3.82,4.29,10.86,9.41,23.59,14.53,37.79,16.04,15.39,1.64,30.85,1.9,46.31,2.22,7.82,.16,15.33-1.54,22.73-3.89,10.97-3.49,20-9.83,27.69-18.33,12.98-14.35,24.88-29.58,36.94-44.67,.47-.59,.87-1.32,1.02-2.04,.15-.7,.23-1.85-.17-2.16-.83-.66-2.06-1.34-3.01-1.21-1.48,.2-2.86,1.08-4.29,1.67-4.64,1.9-9.2,4.04-13.95,5.64-12.5,4.24-25.37,6.79-38.58,7.16-12.75,.35-25.5,.42-38.26,.61Zm353.19-204.51c11.2-7.23,23.91-10.36,36.91-12.85,11.4-2.18,22.63-5.16,33.62-8.94,12.13-4.18,23.73-9.45,34.39-16.64,17.18-11.58,29.88-26.84,37.33-46.26,2.08-5.41,3.67-11.01,5.39-16.55,.46-1.49,.34-3.02-.63-4.4-.93-1.34-2.77-1.77-5.29-.72-15.11,6.27-31.08,9.28-47,12.54-6.05,1.24-12.05,2.85-17.95,4.7-10.44,3.27-20.02,8.26-28.43,15.34-9.79,8.25-19.06,17.03-27.23,26.92-10.21,12.36-18.25,25.94-23.02,41.33-.34,1.1-.71,2.22-.82,3.35-.07,.7,.13,1.65,.59,2.11,.34,.34,1.29,.07,2.12,.07Zm10.77,220.98c4.98-.65,10.07-.84,14.9-2.05,14.31-3.59,27.67-9.74,40.91-16.13,.87-.42,1.15-2.32,.45-3.09-1.82-1.99-3.56-4.08-5.55-5.89-9.79-8.9-20.65-16.29-32.4-22.37-12.74-6.6-26.04-11.85-39.56-16.57-20.81-7.25-41.61-14.52-62.43-21.76-.71-.25-1.51-.57-2.21-.46-.62,.09-1.51,.65-1.64,1.16-.27,1.08-.33,2.31-.09,3.4,3.27,14.54,9.19,27.89,18.17,39.84,10.85,14.44,24.4,25.89,39.6,35.42,9.04,5.67,18.95,8.74,29.84,8.51Zm-484.58,19.17c2.19-.28,5.27-.54,8.3-1.07,14.11-2.45,23.43-11.91,25.9-25.96,.58-3.31,.03-6.11-2.41-8.47-1.11-1.07-2.15-2.22-3.31-3.22-2.57-2.22-5.51-2.62-8.66-1.47-1.08,.4-2.16,.86-3.16,1.44-15.03,8.69-30.07,17.37-45.04,26.17-1.61,.95-2.93,2.48-4.21,3.9-1.63,1.82-1.61,5.23-.17,7.62,1.44,2.38,4.43,3.73,6.93,3.1,.75-.19,1.5-.4,2.2-.71,6.22-2.74,12.66-3.17,19.28-1.87,1.13,.22,2.29,.3,4.34,.55Z"/><path d="M1195.73,1395.41c-3.36-4.11-5.05-8.78-5.85-13.82-.79-4.99-1.16-10.01-.77-15.06,.42-5.41,.82-10.82,1.34-16.22,1.1-11.57,2.59-23.11,3.33-34.7,1.21-18.95,2.2-37.92,2.83-56.89,.72-21.68,.61-43.4,1.98-65.06,.22-3.48,.14-6.97,.27-10.46,.56-15.49,1.14-30.98,1.72-46.46,.44-11.62,.79-23.24,1.37-34.85,.93-18.57,2.07-37.14,3.01-55.71,.14-2.67-.15-5.4-.57-8.06-1.18-7.37-5.98-11.47-12.83-13.43-1.84-.53-3.82-.71-5.75-.77-22.88-.7-44.17-7.35-64.53-17.37-7.64-3.76-15.25-7.6-22.75-11.63-21.36-11.48-40.1-26.34-56.3-44.39-1.29-1.44-2.63-2.85-3.86-4.35-13.79-16.77-31.74-27.02-52.33-32.8-13.09-3.68-26.51-5.73-40.17-5.21-24.89,.94-48.04,7.2-68.63,21.96-19.85,14.23-39.48,28.71-57.63,45.1-2.59,2.34-5.1,4.76-7.68,7.11-2.91,2.65-5.22,5.74-6.86,9.29-5.22,11.3-12.25,21.54-18.82,32.04-5.76,9.19-11.67,18.29-17.42,27.49-6.79,10.85-12.95,22.04-18.32,33.66-7.02,15.21-11.78,31.08-14.34,47.66-2.07,13.41-3.63,26.86-4.72,40.38-.84,10.43-1.87,20.84-2.9,31.24-.15,1.49-.75,2.95-1.21,4.4-.11,.33-.47,.71-.79,.81-.28,.09-.7-.15-1.02-.31-.33-.17-.73-.35-.92-.64-5.13-7.68-7.49-16-6.19-25.31,2.2-15.72,4.24-31.47,6.3-47.21,2.68-20.48,7.98-40.18,16.41-59.1,15.37-34.51,34.25-66.86,58.06-96.25,14.91-18.4,31.08-35.61,49.26-50.86,7.43-6.23,15.22-11.96,23.46-17.11,15.95-9.97,33.17-16.75,51.65-20.04,6.44-1.15,13.1-1.24,19.67-1.5,17.3-.7,33.86,2.86,49.91,9.11,16.32,6.36,31.55,14.79,46.05,24.53,4.47,3,8.52,6.73,12.38,10.5,5.54,5.41,10.82,11.1,16.06,16.8,9.01,9.79,19.21,17.87,31.18,23.88,10.37,5.21,20.32,11.27,30.53,16.81,10.57,5.74,21.52,10.62,33.14,13.87,14,3.91,28.13,5.07,42.51,2.33,3.01-.57,6.15-.8,9.22-.74,4.19,.08,8.11,3.89,8.63,8.08,.24,1.91,.33,3.86,.22,5.78-.25,4.25-.45,8.53-1.05,12.74-1.37,9.61-1.48,19.31-2.27,28.95-1.52,18.56-1.73,37.15-2.36,55.74-.88,25.94-2.14,51.88-3.08,77.82-.53,14.71-.94,29.44-1.06,44.16-.13,15.52-1.37,30.97-2.74,46.41-.41,4.62-1.18,9.22-1.95,13.8-3.86,23.02-4.73,46.22-4.38,69.5,.06,3.87,.03,7.75-.02,11.62-.06,4.52-1.95,8.26-5.26,11.23-.8,.72-2.04,.97-3.18,1.49Z"/><path d="M965.91,1133.56c-22.96,.11-45.56,2.92-67.64,9.35-11.93,3.47-23.36,8.19-34.28,14.13-3.39,1.85-6.78,3.72-9.43,6.67-2.17,2.42-2.28,6.16-.16,8.46,2.95,3.19,6.63,5.35,10.39,7.34,11.98,6.34,24.11,12.37,36.62,17.62,21.46,9.01,43.47,16.28,66.26,21.12,10,2.12,19.91,2.11,29.88-.44,12.46-3.18,24.08-8.41,35.72-13.67,4.94-2.23,9.86-4.5,14.84-6.63,5.72-2.45,11.74-3.9,17.87-4.87,.59-.09,1.71,.33,1.84,.75,.18,.6-.1,1.6-.55,2.11-6.72,7.57-14.3,14.16-22.87,19.57-4.95,3.12-10.25,5.43-15.95,6.81-11.28,2.72-22.48,5.74-33.91,7.85-14.58,2.7-29.17,3.53-43.89,1.44-6.56-.93-12.93-2.65-19.06-5-13.73-5.25-27.44-10.59-40.93-16.41-14.99-6.47-28.98-14.7-41.39-25.49-2.9-2.52-6.09-4.81-9.43-6.72-6.91-3.95-14-4.01-20.97,.01-2.34,1.35-4.6,2.86-6.96,4.18-1.98,1.11-4.81,.48-6.36-1.23-1.88-2.08-2.1-5.47-.29-7.42,1.57-1.69,3.23-3.35,5.06-4.76,5.85-4.49,12.06-8.48,18.74-11.6,14.72-6.9,29.38-13.93,44.34-20.29,13.56-5.76,27.87-9.27,42.31-12.2,14.44-2.93,29.05-4.72,43.65-6.33,22.99-2.53,44.78,1.59,64.55,14.11,10.56,6.69,21.91,11.54,33.77,15.22,12.19,3.78,24.37,7.6,36.82,10.48,1.11,.26,2.36,.63,3.15,1.37,.74,.7,1.33,1.94,1.35,2.96,.06,2.87-2.05,5.48-4.54,5.93-1.52,.27-3.06,.47-4.6,.56-20.34,1.17-39.1-4.07-56.69-14.02-5.39-3.05-10.63-6.37-16.05-9.35-7.13-3.92-14.44-7.41-22.39-9.49-5.29-1.38-10.57-2.29-16.04-2.16-4.26,.1-8.52,.02-12.78,.02Z"/><path d="M782.71,627.54c-.38-15.69,4.23-29.73,12.77-42.74,17.15-26.13,40.84-42.91,71.15-50.34,4.87-1.19,9.85-2.05,14.82-2.77,13.01-1.9,26.04-3.65,39.06-5.45,6.89-.95,13.79-1.88,20.68-2.86,6.55-.93,12.86-2.62,18.72-5.84,5.79-3.18,12.15-4.97,18.39-7,2.91-.94,5.78,.12,7.17,2.33,.21,.33,.46,.63,.64,.97,1.07,2.06,2.25,4.07,3.14,6.21,1.63,3.89,1.32,7.57-1.76,10.73-1.35,1.38-2.74,2.73-4.15,4.06-7.64,7.2-14.28,15.25-20.43,23.72-5,6.89-9.83,13.91-14.76,20.85-2.24,3.15-4.57,6.25-6.82,9.39-11.19,15.6-26.26,26.05-43.95,32.94-8.67,3.37-17.66,5.64-26.83,7.2-6.1,1.04-12.12,2.35-18.05,4.22-20.68,6.51-35.83,19.36-45.26,38.91-.84,1.74-1.8,3.45-2.43,5.26-1.35,3.86-3.91,6.59-7.37,8.63-6.77,3.98-8.48,4.58-8.85-4.22-.54-12.79-2.93-25.36-4.31-38.05-.58-5.38-1.05-10.76-1.57-16.15Zm14.57,13.43c0-.38-.02,.01,0,.4,.09,1.49-.11,3.03,1.25,4.18,.85,.72,2.12,.5,4.01-1.39,11.59-11.59,25.99-17.91,41.51-22.03,7.09-1.88,14.29-3.37,21.43-5.06,9.78-2.32,19.42-5.09,28.83-8.71,15.23-5.86,27.77-15.15,37.05-28.63,3.51-5.1,6.9-10.27,10.17-15.52,6.96-11.17,14.01-22.26,22.89-32.07,.26-.28,.5-.62,.62-.97,.12-.34,.24-.85,.08-1.08-.38-.53-.91-1.3-1.43-1.33-5.13-.33-10.01,.86-14.6,3.04-14.16,6.75-29.2,9.87-44.71,11.32-6.92,.65-13.9,1.24-20.69,2.64-20.07,4.14-38.11,12.7-53.41,26.46-20.18,18.15-31.83,40.56-33,68.77Z"/><path d="M1119.49,1173.82c-1-1.42-1.82-2.23-2.21-3.21-5.79-14.44-13.45-27.86-21.99-40.81-7.02-10.67-13.98-21.38-21.12-31.97-3.68-5.45-7.61-10.73-11.57-15.99-11.98-15.92-27.71-26.81-46.13-33.99-18.26-7.11-37.17-10.54-56.79-9.41-8.89,.51-17.67,1.94-26.29,4.25-25.32,6.77-48.63,17.75-69.55,33.62-13.39,10.16-24.77,22.22-33.43,36.69-5.39,9.01-11.86,17.19-18.61,25.19-4.24,5.03-8.47,10.08-12.63,15.18-8.65,10.61-15.61,22.12-18.86,35.6-.09,.37-.21,.74-.34,1.11-.87,2.54-3.09,4.27-5.06,3.95-2.03-.33-3.58-2.24-4.22-4.99-1.64-7.09-.21-13.85,2.26-20.44,.94-2.51,2.3-4.92,3.82-7.15,12.41-18.24,24.77-36.52,38.7-53.68,11.98-14.77,24.94-28.59,39.62-40.73,19.58-16.19,41.16-28.8,65.49-36.5,11.48-3.63,23.17-5.8,35.17-7.03,23.5-2.41,46.29,.78,68.74,7.43,23.44,6.94,40.83,21.27,52.58,42.74,5.38,9.84,11.46,19.29,17.2,28.94,5.34,8.98,10.89,17.84,15.91,27,4.84,8.84,8.56,18.19,10.79,28.09,.86,3.83,1.41,7.64,.47,11.49-.35,1.43-1.14,2.76-1.95,4.63Z"/><path d="M950.49,1287.09c-12.89,.15-25.47-2.07-37.99-4.74-6.99-1.49-13.1-4.74-18.07-9.9-2.68-2.78-5.31-5.66-7.65-8.73-9.63-12.64-19.02-25.46-29.46-37.46-.25-.29-.5-.62-.62-.98-.22-.67-.35-1.36-.52-2.05,.72-.16,1.52-.63,2.14-.45,7.93,2.39,14.84,6.6,20.75,12.36,2.77,2.7,5.26,5.69,7.92,8.5,4,4.22,7.85,8.59,12.09,12.55,7.74,7.25,16.64,12.66,27.01,15.32,2.99,.77,6.04,1.38,9.1,1.72,14.05,1.53,27.8-.34,41.44-3.71,15.54-3.84,30.07-10.09,43.9-18.05,11.77-6.78,22.9-14.52,33.81-22.58,10.31-7.61,21.12-14.39,32.63-20.05,7.66-3.77,15.65-6.73,23.72-9.46,2.22-.75,4.52-.95,6.87-.43,1.29,.29,2.57,2.03,2.52,3.45-.08,2.54-1.26,4.55-3.21,5.89-1.89,1.3-4.04,2.26-6.16,3.17-11.07,4.76-21.57,10.55-31.53,17.31-9.62,6.52-19.14,13.19-28.64,19.89-9.51,6.7-19.12,13.21-29.17,19.08-17.65,10.32-36.64,16.56-56.95,18.68-4.61,.48-9.28,.46-13.93,.66Z"/></g></svg>